<svg width="32" height="30" viewBox="0 0 32 30" fill="none" xmlns="http://www.w3.org/2000/svg">
<path d="M9.10095 21.2663L14.8385 21.2475L27.3614 9.3225C27.8528 8.85 28.1233 8.2225 28.1233 7.555C28.1233 6.8875 27.8528 6.26 27.3614 5.7875L25.2994 3.805C24.3165 2.86 22.6016 2.865 21.6265 3.80125L9.10095 15.7288V21.2663ZM23.461 5.5725L25.5269 7.55125L23.4506 9.52875L21.3886 7.5475L23.461 5.5725ZM11.7012 16.7713L19.5411 9.305L21.6031 11.2875L13.7645 18.7513L11.7012 18.7575V16.7713Z" fill="white"/>
<path d="M6.50067 26.25H24.7026C26.1367 26.25 27.3029 25.1287 27.3029 23.75V12.915L24.7026 15.415V23.75H10.6065C10.5727 23.75 10.5376 23.7625 10.5038 23.7625C10.4609 23.7625 10.418 23.7512 10.3738 23.75H6.50067V6.25H15.4027L18.003 3.75H6.50067C5.06661 3.75 3.90039 4.87125 3.90039 6.25V23.75C3.90039 25.1287 5.06661 26.25 6.50067 26.25Z" fill="white"/>
</svg>
